<?xml version="1.0" encoding="utf-8"?>
<!-- Generator: Adobe Illustrator 23.0.1, SVG Export Plug-In . SVG Version: 6.00 Build 0)  -->
<svg version="1.1" id="Capa_1" xmlns="http://www.w3.org/2000/svg" xmlns:xlink="http://www.w3.org/1999/xlink" x="0px" y="0px"
	 viewBox="0 0 490.7 490.7" style="enable-background:new 0 0 490.7 490.7;" xml:space="preserve">
<style type="text/css">
	.st0{fill:#FFFFFF;}
</style>
<g>
	<g>
		<path class="st0" d="M42.7,341.3C19.1,341.3,0,360.5,0,384s19.1,42.7,42.7,42.7s42.7-19.1,42.7-42.7S66.2,341.3,42.7,341.3z
			 M42.7,405.3c-11.8,0-21.3-9.6-21.3-21.3s9.6-21.3,21.3-21.3S64,372.2,64,384S54.4,405.3,42.7,405.3z"/>
	</g>
</g>
<g>
	<g>
		<path class="st0" d="M384,0c-23.5,0-42.7,19.1-42.7,42.7s19.1,42.7,42.7,42.7s42.7-19.1,42.7-42.7S407.5,0,384,0z M384,64
			c-11.8,0-21.3-9.6-21.3-21.3c0-11.8,9.6-21.3,21.3-21.3s21.3,9.6,21.3,21.3S395.8,64,384,64z"/>
	</g>
</g>
<g>
	<g>
		<path class="st0" d="M359.5,67.1c-4.2-4.2-10.9-4.2-15.1,0L67.1,344.5c-4.2,4.2-4.2,10.9,0,15.1c2.1,2.1,4.8,3.1,7.6,3.1
			s5.5-1,7.5-3.1L359.5,82.2C363.7,78.1,363.7,71.3,359.5,67.1z"/>
	</g>
</g>
<g>
	<g>
		<circle class="st0" cx="213.3" cy="213.3" r="21.3"/>
	</g>
</g>
<g>
	<g>
		<path class="st0" d="M181.3,426.7h-42.7c-5.9,0-10.7,4.8-10.7,10.7V480c0,5.9,4.8,10.7,10.7,10.7h42.7c5.9,0,10.7-4.8,10.7-10.7
			v-42.7C192,431.4,187.2,426.7,181.3,426.7z M170.7,469.3h-21.3V448h21.3L170.7,469.3L170.7,469.3z"/>
	</g>
</g>
<g>
	<g>
		<path class="st0" d="M480,128h-42.7c-5.9,0-10.7,4.8-10.7,10.7v42.7c0,5.9,4.8,10.7,10.7,10.7H480c5.9,0,10.7-4.8,10.7-10.7v-42.7
			C490.7,132.8,485.9,128,480,128z M469.3,170.7H448v-21.3h21.3V170.7z"/>
	</g>
</g>
<g>
	<g>
		<path class="st0" d="M437.3,149.3l-18,0c-80.6-0.3-156.5-0.6-213.5,56.5S149,338.8,149.3,419.3l0,18c0,5.9,4.8,10.7,10.7,10.7
			s10.7-4.8,10.7-10.7l0-18.1c-0.3-79.2-0.5-147.6,50.2-198.3s119.1-50.5,198.3-50.2l18.1,0c5.9,0,10.7-4.8,10.7-10.7
			S443.2,149.3,437.3,149.3z"/>
	</g>
</g>
</svg>
