<?xml version="1.0" encoding="utf-8"?>
<!-- Generator: Adobe Illustrator 23.0.1, SVG Export Plug-In . SVG Version: 6.00 Build 0)  -->
<svg version="1.1" id="Capa_1" xmlns="http://www.w3.org/2000/svg" xmlns:xlink="http://www.w3.org/1999/xlink" x="0px" y="0px"
	 viewBox="0 0 60 60" style="enable-background:new 0 0 60 60;" xml:space="preserve">
<style type="text/css">
	.st0{fill:#FFFFFF;}
</style>
<g>
	<path class="st0" d="M4,47c-0.4,0-0.7-0.2-0.9-0.6c-0.2-0.5,0-1.1,0.5-1.3l1.8-0.8c0.5-0.2,1.1,0,1.3,0.5c0.2,0.5,0,1.1-0.5,1.3
		l-1.8,0.8C4.3,47,4.1,47,4,47z M54.8,46.5c-0.1,0-0.3,0-0.4-0.1l-1.8-0.8c-0.5-0.2-0.7-0.8-0.5-1.3c0.2-0.5,0.8-0.7,1.3-0.5
		l1.8,0.8c0.5,0.2,0.7,0.8,0.5,1.3C55.6,46.3,55.2,46.5,54.8,46.5z M9.4,44.5c-0.4,0-0.7-0.2-0.9-0.6c-0.2-0.5,0-1.1,0.5-1.3
		l1.8-0.8c0.5-0.2,1.1,0,1.3,0.5c0.2,0.5,0,1.1-0.5,1.3l-1.8,0.8C9.7,44.5,9.6,44.5,9.4,44.5z M49.4,44c-0.1,0-0.3,0-0.4-0.1
		L47.2,43c-0.5-0.2-0.7-0.8-0.5-1.3c0.2-0.5,0.8-0.7,1.3-0.5l1.8,0.8c0.5,0.2,0.7,0.8,0.5,1.3C50.1,43.7,49.8,44,49.4,44z M14.9,42
		c-0.4,0-0.7-0.2-0.9-0.6c-0.2-0.5,0-1.1,0.5-1.3l1.8-0.8c0.5-0.2,1.1,0,1.3,0.5c0.2,0.5,0,1.1-0.5,1.3l-1.8,0.8
		C15.2,41.9,15,42,14.9,42z M44,41.4c-0.1,0-0.3,0-0.4-0.1l-1.8-0.8c-0.5-0.2-0.7-0.8-0.5-1.3c0.2-0.5,0.8-0.7,1.3-0.5l1.8,0.8
		c0.5,0.2,0.7,0.8,0.5,1.3C44.7,41.2,44.3,41.4,44,41.4z M20.3,39.5c-0.4,0-0.7-0.2-0.9-0.6c-0.2-0.5,0-1.1,0.5-1.3l1.8-0.8
		c0.5-0.2,1.1,0,1.3,0.5c0.2,0.5,0,1.1-0.5,1.3l-1.8,0.8C20.6,39.4,20.5,39.5,20.3,39.5z M38.5,38.9c-0.1,0-0.3,0-0.4-0.1L36.3,38
		c-0.5-0.2-0.7-0.8-0.5-1.3c0.2-0.5,0.8-0.7,1.3-0.5l1.8,0.8c0.5,0.2,0.7,0.8,0.5,1.3C39.2,38.7,38.9,38.9,38.5,38.9z M25.8,36.9
		c-0.4,0-0.7-0.2-0.9-0.6c-0.2-0.5,0-1.1,0.5-1.3l1.8-0.8c0.5-0.2,1.1,0,1.3,0.5c0.2,0.5,0,1.1-0.5,1.3l-1.8,0.8
		C26.1,36.9,25.9,36.9,25.8,36.9z M33.1,36.4c-0.1,0-0.3,0-0.4-0.1l-1.8-0.8c-0.5-0.2-0.7-0.8-0.5-1.3c0.2-0.5,0.8-0.7,1.3-0.5
		l1.8,0.8c0.5,0.2,0.7,0.8,0.5,1.3C33.8,36.2,33.4,36.4,33.1,36.4z"/>
	<path class="st0" d="M30,27c-0.6,0-1-0.4-1-1v-2c0-0.6,0.4-1,1-1s1,0.4,1,1v2C31,26.6,30.6,27,30,27z M30,21c-0.6,0-1-0.4-1-1v-2
		c0-0.6,0.4-1,1-1s1,0.4,1,1v2C31,20.6,30.6,21,30,21z M30,15c-0.6,0-1-0.4-1-1v-2c0-0.6,0.4-1,1-1s1,0.4,1,1v2
		C31,14.6,30.6,15,30,15z M30,9c-0.6,0-1-0.4-1-1V6c0-0.6,0.4-1,1-1s1,0.4,1,1v2C31,8.6,30.6,9,30,9z M30,3c-0.6,0-1-0.4-1-1V1
		c0-0.6,0.4-1,1-1s1,0.4,1,1v1C31,2.6,30.6,3,30,3z"/>
	<path class="st0" d="M30,60c-0.2,0-0.3,0-0.4-0.1l-26-13C3.2,46.7,3,46.4,3,46V14c0-0.3,0.2-0.7,0.5-0.8c0.3-0.2,0.6-0.2,1-0.1
		l26,12c0.4,0.2,0.6,0.5,0.6,0.9v33c0,0.3-0.2,0.7-0.5,0.9C30.4,60,30.2,60,30,60z M5,45.4l24,12V26.6L5,15.6V45.4z"/>
	<path class="st0" d="M30,60c-0.2,0-0.4,0-0.5-0.1C29.2,59.7,29,59.3,29,59V26c0-0.4,0.2-0.7,0.6-0.9l26-12c0.3-0.1,0.7-0.1,1,0.1
		c0.3,0.2,0.5,0.5,0.5,0.8v32c0,0.4-0.2,0.7-0.6,0.9l-26,13C30.3,60,30.2,60,30,60z M31,26.6v30.7l24-12V15.6L31,26.6z"/>
	<path class="st0" d="M30,27c-0.1,0-0.3,0-0.4-0.1l-26-12C3.2,14.7,3,14.4,3,14s0.2-0.7,0.6-0.9l26-13c0.3-0.1,0.6-0.1,0.9,0l26,13
		c0.3,0.2,0.6,0.5,0.6,0.9c0,0.4-0.2,0.7-0.6,0.9l-26,12C30.3,27,30.1,27,30,27z M6.3,14L30,24.9L53.7,14L30,2.1L6.3,14z"/>
</g>
</svg>
